<svg fill="none" height="14" viewBox="0 0 18 14" width="18" xmlns="http://www.w3.org/2000/svg"><path d="m15.2477 1.1725c-1.1652-.54775-2.411-.94583-3.7135-1.1725-.16.290583-.3469.681424-.4757.992336-1.38463-.209217-2.75649-.209217-4.11563 0-.12883-.310912-.31995-.701753-.48135-.992336-1.30391.22667-2.5512.626212-3.71638 1.1754-2.350158 3.56829-2.987248 7.04794-2.6687025 10.4782 1.5587525 1.1696 3.0693725 1.88 4.5544925 2.345.36669-.5071.69372-1.0461.97545-1.6142-.53657-.2049-1.05048-.4577-1.53607-.7511.12882-.0959.25483-.1962.37658-.2993 2.96176 1.3918 6.17981 1.3918 9.10621 0 .1231.1031.2491.2034.3765.2993-.487.2949-1.0023.5477-1.5389.7526.2818.5666.6074 1.1071.9755 1.6141 1.4865-.4649 2.9985-1.1754 4.5573-2.3464.3738-3.97654-.6385-7.42424-2.6758-10.4811zm-9.23782 8.37152c-.88909 0-1.61822-.83397-1.61822-1.84953 0-1.01557.71356-1.85097 1.61822-1.85097.90469 0 1.63379.83394 1.61822 1.85097.00141 1.01556-.71353 1.84953-1.61822 1.84953zm5.98022 0c-.8891 0-1.6183-.83397-1.6183-1.84953 0-1.01557.7136-1.85097 1.6183-1.85097.9046 0 1.6337.83394 1.6182 1.85097 0 1.01556-.7136 1.84953-1.6182 1.84953z" fill="#081026"/></svg>
