<svg fill="none" height="17" viewBox="0 0 18 17" width="18" xmlns="http://www.w3.org/2000/svg"><path d="m6.1296 6.47114-1.99569-.9194c-.03563-.03536-.10691 0-.14254.07073l-2.06696 5.26883c-.03564.0707.03564.1415.10691.1415h4.06264c.07128 0 .10691-.0354.10691-.1061v-4.38484c0-.03536-.03563-.07072-.07127-.07072zm11.7959 5.33956c-.0713-.0707-.1782-.0707-.2851-.0353l-.2494.106c-1.2117.6012-2.5659.8841-3.9201.8841-.0713 0-.107.0353-.107.0707-.1425.6365-.6771 1.0962-1.3542 1.0962h-2.77966v-2.2985h.03563c.17819.0354.32074.0354.49892.0707 1.17601.1768 1.74621.7073 1.99571.9548l.0356.0353c.0356.0354.1069.0354.1426 0 .0356-.0353.0712-.0707.1425-.106.4277-.2829 1.4255-.8841 1.4255-4.0666 0-3.25325-2.4946-5.44566-2.7797-5.5871l-1.46113-.10609h-.03563v-.91939c.28509-.17681.49892-.49506.49892-.88404 0-.565781-.42765-1.02548-.99785-1.02548-.57019 0-.99784.459699-.99784 1.02548 0 .35362.17819.67187.49892.84868v.77795l-2.10259-.21217c-.10691 0-.17819.10608-.10691.1768.35637.56579 1.31857 2.33386 1.38985 4.98596.07127 2.4753-.32074 3.6422-.49892 4.0666-.03564.0353-.03564.0707 0 .1061.03563.0353.07127.0353.10691.0353.24946-.0353.6771-.1061 1.21166-.1414v2.2985h-2.31642c-.74838 0-1.38985-.6365-1.38985-1.3791v-.5658c0-.0707-.03563-.1061-.10691-.1061h-4.312099c-.0356369 0-.106911.0354-.106911.1061v.3182c0 1.5913.463284 3.0411 1.2473 4.3141.14255.2122.39201.3183.60583.2122l.46329-.2122c.35637-.1768.78402-.1768 1.17603 0l.49892.2122c.35637.1768.78401.1768 1.17602 0l.49893-.2122c.392-.1768.78401-.1768 1.17602 0l.49892.2122c.39201.1768.78402.1768 1.17603 0l.49892-.2122c.39201-.1768.78402-.1768 1.17599 0l.499.2122c.392.1768.784.1768 1.176 0l.4989-.2122c.392-.1768.784-.1768 1.176 0l.499.2122c.3207.1414.6771-.0354.8553-.3536.285-.4597.5345-.9901.7127-1.4852.392-1.1669 1.1047-2.2631 2.2095-2.7936.1069-.0353.1426-.1414.1426-.2475.0712-.0353.0356-.1414-.0357-.1768z" fill="#081026"/></svg>
