<svg fill="none" height="14" viewBox="0 0 16 14" width="16" xmlns="http://www.w3.org/2000/svg"><path d="m15.584 1.57761c-.4485.72311-1.009 1.32571-1.5696 1.80778v.48208c0 .96415-.1121 1.92829-.3363 2.77192-.2242.96415-.6727 1.80779-1.1211 2.65142-.5605.84359-1.1211 1.56679-1.7938 2.28989-.78474.7231-1.68162 1.2051-2.5785 1.5667-1.00899.3616-2.13009.6026-3.2512.6026-1.79376 0-3.47542-.6026-4.9328515-1.5667h.7847725c1.457439 0 2.914869-.4821 4.035969-1.4463-.67266 0-1.34532-.241-1.90588-.7231-.56055-.48206-.89688-.96413-1.1211-1.68724h.56055c.33633 0 .56056 0 .89689-.12052-.67266-.12052-1.34533-.60259-1.79377-1.20519-.67266-.60259-.89688-1.3257-.89688-2.16934.44844.24104 1.00899.36156 1.45743.48208-.44844-.36155-.78477-.72311-1.1211-1.20519-.224221-.48207-.448441-1.08467-.448441-1.68726s.11211-1.20519.448441-1.687261c.78477 1.084671 1.79377 1.928301 2.91487 2.530891 1.1211.6026 2.35432.96415 3.69964 1.08467 0-.24104-.11211-.48207-.11211-.84363 0-.72311.22422-1.32571.56055-1.9283.33633-.602592.89688-.964149 1.45743-1.325705.56056-.2410375 1.23319-.361557 1.90589-.120519.6726.120518 1.2332.482076 1.6816.964154.6727-.120522 1.4575-.36156 2.018-.843635-.2242.843635-.7847 1.446225-1.4574 1.928295.7848-.12051 1.4574-.24103 2.018-.60259z" fill="#081026"/></svg>
