<svg height="492pt" preserveAspectRatio="xMidYMid meet" viewBox="0 0 492 492" width="492pt" xmlns="http://www.w3.org/2000/svg"><g transform="matrix(.1 0 0 -.1 0 492)"><path d="m2400 3360v-240h-60-60v180 180h-120-120v-120-120h60 60v-180-180h120 120v-180-180h120 120v60 60h240 240v-60-60h-120-120v-60-60h-180-180v-60-60h-60-60v60 60h-180-180v60 60h-60-60v120 120h-60-60v120 120h-120-120v-120-120h60 60v-60-60h-60-60v-360-360h60 60v60 60h60 60v120 120h60 60v-300-300h-120-120v-120-120h-60-60v60 60h-120-120v-120-120h-60-60v60 60h-120-120v-120-120h-180-180v-60-60h-120-120v-60-60h-60-60v-60-60h60 60v-60-60h-180-180v-360-360h960 960v60 60h-60-60v60 60h-60-60v240 240h240 240v60 60h-60-60v120 120h-120-120v-120-120h-60-60v240 240h180 180v180 180h60 60v-120-120h60 60v-60-60h60 60v-120-120h-60-60v-60-60h60 60v-120-120h-60-60v-60-60h-120-120v-60-60h60 60v-120-120h120 120v-60-60h-60-60v-60-60h1320 1320v540 540h-180-180v60 60h-180-180v60 60h-120-120v60 60h-120-120v120 120h-180-180v-120-120h-60-60v120 120h-120-120v360 360h60 60v-180-180h60 60v-60-60h60 60v120 120h60 60v120 120h-60-60v60 60h60 60v120 120h-60-60v120 120h-60-60v60 60h-60-60v60 60h-60-60v60 60h-120-120v60 60h-60-60v60 60h-120-120zm-1440-2460v-60h-60-60v-60-60h-60-60v-60-60h-60-60v120 120h-60-60v60 60h240 240zm360-120v-180h-60-60v-120-120h-60-60v240 240h60 60v60 60h60 60z"/><path d="m3480 3300v-60h-60-60v-60-60h120 120v120 120h-60-60z"/><path d="m1440 3180v-60h60 60v60 60h-60-60z"/></g></svg>
